<svg width="48" height="48" viewBox="0 0 48 48" fill="none" xmlns="http://www.w3.org/2000/svg">
<rect width="48" height="48" rx="10" fill="#E6E7FE" style="fill:#E6E7FE;fill:color(display-p3 0.9020 0.9059 0.9961);fill-opacity:1;"/>
<path d="M25.5 30.5C25.5 31.3284 24.8284 32 24 32C23.1716 32 22.5 31.3284 22.5 30.5C22.5 29.6716 23.1716 29 24 29C24.8284 29 25.5 29.6716 25.5 30.5Z" fill="#8279FF" style="fill:#8279FF;fill:color(display-p3 0.5098 0.4745 1.0000);fill-opacity:1;"/>
<path d="M22 16C21.7239 16 21.5 16.2239 21.5 16.5C21.5 16.7761 21.7239 17 22 17H26C26.2761 17 26.5 16.7761 26.5 16.5C26.5 16.2239 26.2761 16 26 16H22Z" fill="#8279FF" style="fill:#8279FF;fill:color(display-p3 0.5098 0.4745 1.0000);fill-opacity:1;"/>
<path d="M20 14C18.8954 14 18 14.8954 18 16V32C18 33.1046 18.8954 34 20 34H28C29.1046 34 30 33.1046 30 32V16C30 14.8954 29.1046 14 28 14H20ZM28 15C28.5523 15 29 15.4477 29 16V32C29 32.5523 28.5523 33 28 33H20C19.4477 33 19 32.5523 19 32V16C19 15.4477 19.4477 15 20 15H28Z" fill="#8279FF" style="fill:#8279FF;fill:color(display-p3 0.5098 0.4745 1.0000);fill-opacity:1;"/>
</svg>
